<svg id="_6th" data-name="6th" xmlns="http://www.w3.org/2000/svg" width="479.82" height="96.69" viewBox="0 0 962.72 194">
  <metadata><?xpacket begin="﻿" id="W5M0MpCehiHzreSzNTczkc9d"?>
<x:xmpmeta xmlns:x="adobe:ns:meta/" x:xmptk="Adobe XMP Core 5.6-c138 79.159824, 2016/09/14-01:09:01        ">
   <rdf:RDF xmlns:rdf="http://www.w3.org/1999/02/22-rdf-syntax-ns#">
      <rdf:Description rdf:about=""/>
   </rdf:RDF>
</x:xmpmeta>
                                                                                                    
                                                                                                    
                                                                                                    
                                                                                                    
                                                                                                    
                                                                                                    
                                                                                                    
                                                                                                    
                                                                                                    
                                                                                                    
                                                                                                    
                                                                                                    
                                                                                                    
                                                                                                    
                                                                                                    
                                                                                                    
                                                                                                    
                                                                                                    
                                                                                                    
                                                                                                    
                           
<?xpacket end="w"?></metadata>
<defs>
    <style>
      .cls-1 {
        fill: #0f1429;
        fill-rule: evenodd;
      }

      .cls-2 {
        fill: #4d516a;
      }
    </style>
  </defs>
  <path id="t" class="cls-1" d="M2349,1441l47.73,70h-35.75L2320,1445a89.41,89.41,0,0,0,15-1C2344.96,1442.58,2349,1441,2349,1441Zm-50-105v175h-29.77V1336H2299Zm0,0h24.23q19.26,0,33.38,6.75a51.425,51.425,0,0,1,21.87,19q7.755,12.255,7.75,28.75,0,16.26-7.75,28.5c-5.16,8.17-12.57,14.26-21.87,19-9.32,4.75-24.18,7-33.61,7h-24v-25h23c6.83,0,12.73-.88,17.73-3.13a26.512,26.512,0,0,0,11.75-10,28.676,28.676,0,0,0,4.25-15.87q0-9.495-4.25-16a26.841,26.841,0,0,0-11.75-9.88,42.948,42.948,0,0,0-17.75-3.37L2299,1362v-26Zm101.23,0h122v27.25h-46.25V1511h-29.75V1363.25h-46V1336ZM2572,1485h77.98v26H2572v-26Zm0-149h77.98v26H2572v-26Zm0,68,72.98,0.5V1430H2572v-26Zm0-68v175h-28.52V1336H2572Zm240.98,0-53,84,56.75,91h-36l-37.5-67.25L2704.48,1511h-35.75l58-91-51.75-84h35.75l32.75,59.25,33.5-59.25h36Z" transform="translate(-1854 -1322)"/>
  <circle class="cls-2" cx="269" cy="97" r="92"/>
  <path id="Ellipse_2_copy" data-name="Ellipse 2 copy" class="cls-1" d="M2007,1497.9a97,97,0,1,1-.29-158.01s-26.62,39.65-26.55,79.11C1980.23,1458.54,2007,1497.9,2007,1497.9Z" transform="translate(-1854 -1322)"/>
</svg>
